<?xml version="1.0" encoding="UTF-8" standalone="no"?>
<!-- Created with Inkscape (http://www.inkscape.org/) -->

<svg
   xmlns:dc="http://purl.org/dc/elements/1.1/"
   xmlns:cc="http://creativecommons.org/ns#"
   xmlns:rdf="http://www.w3.org/1999/02/22-rdf-syntax-ns#"
   xmlns:svg="http://www.w3.org/2000/svg"
   xmlns="http://www.w3.org/2000/svg"
   xmlns:sodipodi="http://sodipodi.sourceforge.net/DTD/sodipodi-0.dtd"
   xmlns:inkscape="http://www.inkscape.org/namespaces/inkscape"
   width="730"
   height="112"
   viewBox="0 0 193.14583 29.633333"
   version="1.1"
   id="svg138"
   inkscape:version="0.92.4 (fd57863, 2020-04-02)"
   sodipodi:docname="rollodex-white.svg">
  <defs
     id="defs132" />
  <sodipodi:namedview
     id="base"
     pagecolor="#ffffff"
     bordercolor="#666666"
     borderopacity="1.0"
     inkscape:pageopacity="0.0"
     inkscape:pageshadow="2"
     inkscape:zoom="0.5339256"
     inkscape:cx="481.13212"
     inkscape:cy="106.72074"
     inkscape:document-units="mm"
     inkscape:current-layer="layer3"
     showgrid="false"
     inkscape:window-width="1213"
     inkscape:window-height="665"
     inkscape:window-x="1347"
     inkscape:window-y="27"
     inkscape:window-maximized="1"
     units="px" />
  <metadata
     id="metadata135">
    <rdf:RDF>
      <cc:Work
         rdf:about="">
        <dc:format>image/svg+xml</dc:format>
        <dc:type
           rdf:resource="http://purl.org/dc/dcmitype/StillImage" />
        <dc:title></dc:title>
      </cc:Work>
    </rdf:RDF>
  </metadata>
  <g
     inkscape:groupmode="layer"
     id="layer2"
     inkscape:label="Layer 2"
     transform="translate(0,-267.36667)" />
  <g
     inkscape:groupmode="layer"
     id="layer3"
     inkscape:label="Layer 3"
     transform="translate(0,-20.366667)">
    <path
       style="clip-rule:evenodd;display:inline;fill:#cccccc;fill-rule:evenodd;stroke-width:0.9415561"
       d="m 73.998239,49.99977 0.257977,-25.846731 h 8.917456 l 0.129061,18.99795 8.140564,-0.13003 0.13007,6.978811 z"
       id="path85-3"
       inkscape:connector-curvature="0" />
    <path
       style="clip-rule:evenodd;display:inline;fill:#cccccc;fill-rule:evenodd;stroke-width:0.9415561"
       d="m 164.20129,23.896099 0.25802,6.71989 h -7.62464 v 3.23049 h 6.71984 l -0.129,5.94597 h -6.33201 l -0.12998,3.35944 h 7.10785 v 6.847881 l -16.28241,-0.128011 0.12805,-26.10466 z"
       id="path83-6"
       inkscape:connector-curvature="0" />
    <path
       style="clip-rule:evenodd;display:inline;fill:#cccccc;fill-rule:evenodd;stroke-width:0.9415561"
       d="m 179.19091,43.536929 -4.52232,6.462841 h -9.69324 l 9.04631,-13.827671 -8.14156,-11.76098 h 10.21024 l 2.97153,5.29906 2.97254,-5.29906 10.20929,0.12993 -7.62382,12.01899 8.52865,13.439731 -10.46721,-0.128881 z"
       id="path81-7"
       inkscape:connector-curvature="0" />
    <path
       style="clip-rule:evenodd;display:inline;fill:#cccccc;fill-rule:evenodd;stroke-width:0.9415561"
       d="m 115.73933,40.822399 3.10251,0.25703 c 0.12889,-0.25703 0.25696,-0.6459 0.25696,-1.03378 l -4.39327,-1.8097 h 4.91211 c 0,-0.3879 0.12897,-0.90483 0.12897,-1.29284 l -6.33378,-1.03374 6.33378,-1.29183 c 0,-0.3879 -0.12897,-0.64689 -0.12897,-1.03383 l -5.81693,0.258 -0.646,-0.258 0.38802,-0.64687 5.29813,-2.19662 c -0.25894,-0.51695 -0.51691,-1.16285 -0.77586,-1.679759 l -5.55704,2.843539 h -0.77402 l 0.12904,-0.774949 4.3933,-4.52321 c -0.25701,-0.387961 -0.64588,-0.646841 -0.90492,-1.034791 l -5.03907,4.65222 -0.64788,0.12894 -0.12803,-0.772909 2.45461,-6.203031 h 0.13108 c -0.51897,-0.25793 -1.03591,-0.51689 -1.55191,-0.64594 l -2.84242,7.49483 c 2.39103,0.79864 4.00425,3.03614 4.0062,5.55714 0.12904,3.35939 -2.58361,6.0739 -5.81593,6.0739 -3.35952,0 -6.074123,-2.5855 -6.074123,-5.94496 0,-3.23051 2.584813,-5.94402 5.944123,-5.94402 h 0.12901 l -0.12901,-8.14169 h -0.25793 c -7.753853,0.12901 -13.957803,6.46192 -13.827783,14.34459 0.12797,7.75282 6.46196,13.955791 14.215713,13.827759 5.16815,-0.128997 9.69239,-2.971579 12.01892,-7.107839 z"
       id="path79-5"
       inkscape:connector-curvature="0" />
    <path
       style="clip-rule:evenodd;display:inline;fill:#cccccc;fill-rule:evenodd;stroke-width:0.94155604"
       d="M 122.07251,23.636229 121.94125,50 h 11.37243 c 10.98609,0 12.53567,-10.079311 12.53567,-13.569721 0,-1.42171 0.13005,-9.43459 -8.39948,-12.14809 -1.03384,-0.38798 -2.45463,-0.51696 -4.00544,-0.64596 z m 8.80205,7.92097 h 2.84375 c 1.03382,0 2.06863,0.77494 1.42162,0.64595 0.51692,0.12899 1.68103,2.84352 1.68103,4.78214 0,1.68065 -1.03519,3.48853 -1.42317,4.00544 -0.51689,0.90483 -0.64729,0.90485 -1.54925,0.90485 h -2.97398 z"
       id="path77-3"
       inkscape:connector-curvature="0" />
    <path
       style="clip-rule:evenodd;display:inline;fill:#cccccc;fill-rule:evenodd;stroke-width:0.9415561"
       d="m 53.808883,49.99977 c 0.08604,-8.615581 0.172005,-17.231181 0.258037,-25.846731 2.972451,0 5.944965,0 8.917485,0 0.04297,6.33281 0.08601,12.66541 0.1289,18.99795 2.713686,-0.0433 5.427202,-0.0866 8.140837,-0.13003 0.04343,2.32633 0.08659,4.65259 0.129845,6.978811 -5.858317,0 -11.716713,0 -17.575104,0 z"
       id="path73-5"
       inkscape:connector-curvature="0" />
    <path
       style="clip-rule:evenodd;display:inline;fill:#cccccc;fill-rule:evenodd;stroke-width:0.94155604"
       d="m 13.933345,23.729769 c -0.40683,0.005 -0.812976,0.0246 -1.21698,0.0558 -3.4902799,0.0725 -6.9803769,0.14499 -10.4706789,0.21756 -0.043,8.65854 -0.0862,17.31708 -0.129191,25.97567 2.756887,-0.0431 5.513953,-0.0856 8.2708149,-0.128669 0.04299,-2.670871 0.08564,-5.342091 0.128674,-8.012951 2.359489,2.82173 4.62037,5.27202 6.619233,8.124049 2.661515,-0.0374 5.323024,-0.0746 7.984526,-0.112138 -1.981639,-3.488691 -3.963217,-6.977741 -5.944856,-10.466541 2.532178,-1.22701 4.786272,-3.50494 4.89014,-6.46886 0.610592,-2.4905 -0.27427,-5.07398 -2.137855,-6.76909 -2.273535,-1.81609 -5.146018,-2.45176 -7.993827,-2.41484 z m -2.705778,6.20117 c 2.309786,-0.0542 4.820794,1.78571 3.133142,4.18114 -0.463296,0.56945 -1.204139,0.8038 -1.912028,0.83406 -1.593371,0.34733 -2.8242503,0.18633 -2.370914,-1.63763 -0.02833,-1.04798 -0.05646,-2.09595 -0.08475,-3.14399 0.385965,-0.14845 0.806812,-0.22354 1.23455,-0.23358 z"
       id="path71-6"
       inkscape:connector-curvature="0" />
    <path
       style="clip-rule:evenodd;display:inline;fill:#cccccc;fill-rule:evenodd;stroke-width:0.94155604"
       d="m 38.688424,22.705539 c -6.889784,-0.0307 -13.140656,5.886581 -13.41727,12.78372 -0.561605,6.87681 4.879486,13.550269 11.735203,14.36036 6.824054,1.085882 13.879605,-3.85674 15.209924,-10.63191 1.514941,-6.38346 -2.388999,-13.37591 -8.53178,-15.58923 -1.589694,-0.61165 -3.292996,-0.92407 -4.996077,-0.92294 z m 0.04341,8.15971 c 0.976733,-0.0282 1.963193,0.23228 2.791558,0.83044 3.559763,2.5603 2.193938,10.10739 -2.689757,10.04435 -3.64404,0.29831 -5.465376,-3.97553 -4.617804,-7.03265 0.265919,-2.32241 2.367192,-3.78004 4.516003,-3.84214 z"
       id="path67-2"
       inkscape:connector-curvature="0" />
  </g>
  <g
     inkscape:label="Layer 1"
     inkscape:groupmode="layer"
     id="layer1"
     transform="translate(0,-267.36667)"
     style="display:inline">
    <path
       style="clip-rule:evenodd;display:inline;fill:#ffffff;fill-rule:evenodd;stroke-width:0.94155604"
       d="m 72.410744,295.94143 0.257975,-25.84673 h 8.917458 l 0.129061,18.99795 8.140557,-0.13003 0.130062,6.97881 z"
       id="path85"
       inkscape:connector-curvature="0" />
    <path
       style="clip-rule:evenodd;display:inline;fill:#ffffff;fill-rule:evenodd;stroke-width:0.94155604"
       d="m 162.61378,269.83776 0.25802,6.71989 h -7.62464 v 3.23049 h 6.71984 l -0.129,5.94597 h -6.33201 l -0.12998,3.35944 h 7.10785 v 6.84788 l -16.28241,-0.12802 0.12805,-26.10466 z"
       id="path83"
       inkscape:connector-curvature="0" />
    <path
       style="clip-rule:evenodd;display:inline;fill:#ffffff;fill-rule:evenodd;stroke-width:0.94155604"
       d="m 177.6034,289.47859 -4.52232,6.46284 h -9.69324 l 9.04631,-13.82767 -8.14156,-11.76098 h 10.21024 l 2.97153,5.29906 2.97254,-5.29906 10.20929,0.12993 -7.62382,12.01899 8.52865,13.43973 -10.46721,-0.12888 z"
       id="path81"
       inkscape:connector-curvature="0" />
    <path
       style="clip-rule:evenodd;display:inline;fill:#ffffff;fill-rule:evenodd;stroke-width:0.94155604"
       d="m 114.15182,286.76406 3.10251,0.25702 c 0.12889,-0.25702 0.25696,-0.64589 0.25696,-1.03377 l -4.39327,-1.80971 h 4.91211 c 0,-0.3879 0.12897,-0.90483 0.12897,-1.29284 l -6.33378,-1.03374 6.33378,-1.29183 c 0,-0.3879 -0.12897,-0.64689 -0.12897,-1.03383 l -5.81693,0.258 -0.646,-0.258 0.38802,-0.64687 5.29813,-2.19662 c -0.25894,-0.51695 -0.51691,-1.16285 -0.77586,-1.67976 l -5.55704,2.84354 h -0.77402 l 0.12904,-0.77495 4.3933,-4.52321 c -0.25701,-0.38796 -0.64588,-0.64684 -0.90492,-1.03478 l -5.03907,4.65222 -0.64788,0.12894 -0.12803,-0.77292 2.45461,-6.20303 h 0.13108 c -0.51897,-0.25793 -1.03591,-0.51689 -1.55191,-0.64594 l -2.84242,7.49483 c 2.39103,0.79864 4.00425,3.03614 4.0062,5.55714 0.12904,3.35939 -2.58361,6.0739 -5.81593,6.0739 -3.35952,0 -6.074113,-2.5855 -6.074113,-5.94496 0,-3.23051 2.584803,-5.94402 5.944113,-5.94402 h 0.12901 l -0.12901,-8.14169 h -0.25793 c -7.753853,0.12901 -13.957803,6.46192 -13.827783,14.34459 0.12798,7.75282 6.46196,13.95579 14.215713,13.82776 5.16815,-0.129 9.69239,-2.97158 12.01892,-7.10784 z"
       id="path79"
       inkscape:connector-curvature="0" />
    <path
       style="clip-rule:evenodd;display:inline;fill:#ffffff;fill-rule:evenodd;stroke-width:0.94155598"
       d="m 120.485,269.57788 -0.13126,26.36377 h 11.37243 c 10.98609,0 12.53567,-10.07931 12.53567,-13.56972 0,-1.42171 0.13005,-9.43459 -8.39948,-12.14809 -1.03384,-0.38798 -2.45463,-0.51696 -4.00544,-0.64596 z m 8.80205,7.92098 h 2.84375 c 1.03382,0 2.06863,0.77494 1.42162,0.64595 0.51692,0.12899 1.68103,2.84352 1.68103,4.78214 0,1.68065 -1.03519,3.48853 -1.42317,4.00544 -0.51689,0.90483 -0.64729,0.90485 -1.54925,0.90485 h -2.97398 z"
       id="path77"
       inkscape:connector-curvature="0" />
    <path
       style="clip-rule:evenodd;display:inline;fill:#ffffff;fill-rule:evenodd;stroke-width:0.94155604"
       d="m 52.221387,295.94143 c 0.08604,-8.61559 0.172007,-17.23118 0.258038,-25.84673 2.97245,0 5.944966,0 8.917485,0 0.04297,6.33281 0.08601,12.66541 0.128899,18.99795 2.713687,-0.0433 5.427202,-0.0866 8.140837,-0.13003 0.04343,2.32633 0.08659,4.65259 0.129845,6.97881 -5.858318,0 -11.716712,0 -17.575104,0 z"
       id="path73"
       inkscape:connector-curvature="0" />
    <path
       style="clip-rule:evenodd;display:inline;fill:#ffffff;fill-rule:evenodd;stroke-width:0.94155598"
       d="m 12.34585,269.67143 c -0.40683,0.005 -0.812976,0.0246 -1.21698,0.0558 -3.4902809,0.0725 -6.9803779,0.145 -10.470679,0.21756 -0.043,8.65855 -0.0862,17.31708 -0.129191,25.97567 2.7568861,-0.0431 5.5139521,-0.0856 8.2708131,-0.12867 0.04299,-2.67087 0.08564,-5.34209 0.128674,-8.01295 2.3594909,2.82173 4.6203719,5.27202 6.6192349,8.12405 2.661515,-0.0374 5.323024,-0.0746 7.984526,-0.11214 -1.981639,-3.48869 -3.963217,-6.97774 -5.944856,-10.46654 2.532178,-1.22701 4.786272,-3.50494 4.89014,-6.46886 0.610592,-2.4905 -0.27427,-5.07398 -2.137855,-6.76909 -2.273535,-1.81609 -5.146018,-2.45176 -7.993827,-2.41484 z m -2.7057793,6.20117 c 2.3097873,-0.0542 4.8207953,1.78571 3.1331433,4.18114 -0.463296,0.56945 -1.204139,0.8038 -1.912028,0.83406 -1.5933729,0.34733 -2.8242509,0.18633 -2.3709149,-1.63763 -0.02833,-1.04798 -0.05646,-2.09595 -0.08475,-3.14399 0.385965,-0.14845 0.806812,-0.22354 1.2345496,-0.23358 z"
       id="path71"
       inkscape:connector-curvature="0" />
    <path
       style="clip-rule:evenodd;display:inline;fill:#ffffff;fill-rule:evenodd;stroke-width:0.94155598"
       d="m 37.100928,268.6472 c -6.889784,-0.0307 -13.140655,5.88658 -13.417269,12.78372 -0.561605,6.87681 4.879485,13.55027 11.735202,14.36036 6.824054,1.08588 13.879605,-3.85674 15.209924,-10.63191 1.514941,-6.38346 -2.388999,-13.37591 -8.53178,-15.58923 -1.589693,-0.61165 -3.292996,-0.92407 -4.996077,-0.92294 z m 0.04341,8.15971 c 0.976733,-0.0282 1.963192,0.23228 2.79156,0.83044 3.55976,2.5603 2.193938,10.10739 -2.689757,10.04435 -3.644042,0.29831 -5.465376,-3.97553 -4.617807,-7.03265 0.265922,-2.32241 2.367195,-3.78004 4.516004,-3.84214 z"
       id="path67"
       inkscape:connector-curvature="0" />
  </g>
</svg>
