<?xml version="1.0" encoding="UTF-8" standalone="no"?>
<!-- Created with Inkscape (http://www.inkscape.org/) -->

<svg
   xmlns:dc="http://purl.org/dc/elements/1.1/"
   xmlns:cc="http://creativecommons.org/ns#"
   xmlns:rdf="http://www.w3.org/1999/02/22-rdf-syntax-ns#"
   xmlns:svg="http://www.w3.org/2000/svg"
   xmlns="http://www.w3.org/2000/svg"
   xmlns:sodipodi="http://sodipodi.sourceforge.net/DTD/sodipodi-0.dtd"
   xmlns:inkscape="http://www.inkscape.org/namespaces/inkscape"
   width="730"
   height="112"
   viewBox="0 0 193.14583 29.633333"
   version="1.1"
   id="svg138"
   inkscape:version="0.92.4 (fd57863, 2020-04-02)"
   sodipodi:docname="rollodex.svg">
  <defs
     id="defs132" />
  <sodipodi:namedview
     id="base"
     pagecolor="#ffffff"
     bordercolor="#666666"
     borderopacity="1.0"
     inkscape:pageopacity="0.0"
     inkscape:pageshadow="2"
     inkscape:zoom="0.75508483"
     inkscape:cx="401.15969"
     inkscape:cy="134.0288"
     inkscape:document-units="mm"
     inkscape:current-layer="layer3"
     showgrid="false"
     inkscape:window-width="1213"
     inkscape:window-height="665"
     inkscape:window-x="1347"
     inkscape:window-y="27"
     inkscape:window-maximized="1"
     units="px" />
  <metadata
     id="metadata135">
    <rdf:RDF>
      <cc:Work
         rdf:about="">
        <dc:format>image/svg+xml</dc:format>
        <dc:type
           rdf:resource="http://purl.org/dc/dcmitype/StillImage" />
        <dc:title></dc:title>
      </cc:Work>
    </rdf:RDF>
  </metadata>
  <g
     inkscape:groupmode="layer"
     id="layer2"
     inkscape:label="Layer 2"
     transform="translate(0,-267.36667)" />
  <g
     inkscape:groupmode="layer"
     id="layer3"
     inkscape:label="Layer 3"
     transform="translate(0,-20.366667)">
    <path
       style="clip-rule:evenodd;display:inline;fill:#999999;fill-rule:evenodd;stroke-width:0.9415561"
       d="m 73.998412,49.999775 0.25798,-25.846731 h 8.91745 l 0.12907,18.99795 8.140552,-0.13003 0.13007,6.978811 z"
       id="path85-9"
       inkscape:connector-curvature="0" />
    <path
       style="clip-rule:evenodd;display:inline;fill:#999999;fill-rule:evenodd;stroke-width:0.9415561"
       d="m 164.20146,23.896104 0.25802,6.71989 h -7.62464 v 3.23049 h 6.71984 l -0.129,5.94597 h -6.33201 l -0.12998,3.35944 h 7.10785 v 6.847881 l -16.28241,-0.128011 0.12805,-26.10466 z"
       id="path83-1"
       inkscape:connector-curvature="0" />
    <path
       style="clip-rule:evenodd;display:inline;fill:#999999;fill-rule:evenodd;stroke-width:0.9415561"
       d="m 179.19108,43.536934 -4.52232,6.462841 h -9.69324 l 9.04631,-13.827671 -8.14156,-11.76098 h 10.21024 l 2.97153,5.29906 2.97254,-5.29906 10.20929,0.12993 -7.62382,12.01899 8.52865,13.439731 -10.46721,-0.128881 z"
       id="path81-2"
       inkscape:connector-curvature="0" />
    <path
       style="clip-rule:evenodd;display:inline;fill:#999999;fill-rule:evenodd;stroke-width:0.9415561"
       d="m 115.7395,40.822404 3.10251,0.25703 c 0.12889,-0.25703 0.25696,-0.6459 0.25696,-1.03378 l -4.39327,-1.8097 h 4.91211 c 0,-0.3879 0.12897,-0.90483 0.12897,-1.29284 l -6.33378,-1.03374 6.33378,-1.29183 c 0,-0.3879 -0.12897,-0.64689 -0.12897,-1.03383 l -5.81693,0.258 -0.646,-0.258 0.38802,-0.64687 5.29813,-2.19662 c -0.25894,-0.51695 -0.51691,-1.16285 -0.77586,-1.67976 l -5.55704,2.84354 h -0.77402 l 0.12904,-0.77495 4.3933,-4.52321 c -0.25701,-0.38796 -0.64588,-0.64684 -0.90492,-1.03479 l -5.03907,4.65222 -0.64788,0.12894 -0.12803,-0.77291 2.45461,-6.20303 h 0.13108 c -0.51897,-0.25793 -1.03591,-0.51689 -1.55191,-0.64594 l -2.84242,7.49483 c 2.39103,0.79864 4.00425,3.03614 4.0062,5.55714 0.12904,3.35939 -2.58361,6.0739 -5.81593,6.0739 -3.35952,0 -6.074116,-2.5855 -6.074116,-5.94496 0,-3.23051 2.584806,-5.94402 5.944116,-5.94402 h 0.12901 l -0.12901,-8.14169 h -0.25793 c -7.753856,0.12901 -13.957806,6.46192 -13.827786,14.34459 0.12798,7.75282 6.46196,13.955791 14.215716,13.827759 5.16815,-0.128997 9.69239,-2.971579 12.01892,-7.107839 z"
       id="path79-7"
       inkscape:connector-curvature="0" />
    <path
       inkscape:connector-curvature="0"
       style="clip-rule:evenodd;display:inline;fill:#999999;fill-rule:evenodd;stroke-width:0.94155604"
       d="M 122.07267,23.636236 121.94142,50 h 11.37243 c 10.98609,0 12.53567,-10.079304 12.53567,-13.569713 0,-1.42171 0.13004,-9.434596 -8.39949,-12.148096 -1.03384,-0.38798 -2.45463,-0.516955 -4.00544,-0.645955 z m 8.80205,7.920963 h 2.84376 c 1.03382,0 2.06863,0.774946 1.42161,0.645956 0.51693,0.12899 1.68104,2.843517 1.68104,4.782137 0,1.680649 -1.0352,3.488531 -1.42317,4.00544 -0.51689,0.90483 -0.6473,0.904854 -1.54926,0.904854 h -2.97398 z"
       id="path77-0" />
    <path
       style="clip-rule:evenodd;display:inline;fill:#999999;fill-rule:evenodd;stroke-width:0.9415561"
       d="m 53.809052,49.999775 c 0.086,-8.615581 0.17201,-17.231181 0.25804,-25.846731 2.97245,0 5.94497,0 8.91748,0 0.043,6.33281 0.086,12.66541 0.1289,18.99795 2.71369,-0.0433 5.42721,-0.0866 8.14084,-0.13003 0.0434,2.32633 0.0866,4.65259 0.12985,6.978811 -5.85832,0 -11.71671,0 -17.57511,0 z"
       id="path73-9"
       inkscape:connector-curvature="0" />
    <path
       inkscape:connector-curvature="0"
       style="clip-rule:evenodd;display:inline;fill:#999999;fill-rule:evenodd;stroke-width:0.94155604"
       d="m 13.933518,23.72977 c -0.40683,0.0053 -0.812977,0.02458 -1.21698,0.05581 -3.4902805,0.0725 -6.9803785,0.144987 -10.4706795,0.217557 -0.043,8.65854 -0.0862,17.317085 -0.129191,25.975674 2.756886,-0.0431 5.513953,-0.08561 8.2708125,-0.128672 0.04299,-2.67087 0.08564,-5.342088 0.128674,-8.012948 2.359491,2.821731 4.620372,5.272021 6.619236,8.124052 2.661514,-0.0374 5.323024,-0.07464 7.984526,-0.112139 -1.981639,-3.488689 -3.963218,-6.977744 -5.944857,-10.466543 2.532179,-1.22701 4.786273,-3.504937 4.890141,-6.468856 0.610592,-2.4905 -0.27427,-5.073986 -2.137855,-6.769096 C 19.65381,24.32852 16.781327,23.692851 13.933518,23.72977 Z m -2.705778,6.201172 c 2.309786,-0.05421 4.820794,1.785709 3.133142,4.18114 -0.463296,0.56945 -1.204139,0.803798 -1.912028,0.834058 -1.593372,0.34733 -2.8242515,0.186333 -2.370916,-1.637627 -0.02833,-1.04798 -0.05646,-2.095953 -0.084749,-3.143993 0.385964,-0.148447 0.806812,-0.223539 1.234551,-0.233578 z"
       id="path71-3" />
    <path
       inkscape:connector-curvature="0"
       style="clip-rule:evenodd;display:inline;fill:#999999;fill-rule:evenodd;stroke-width:0.94155604"
       d="m 38.688596,22.705543 c -6.889784,-0.0307 -13.140656,5.886576 -13.417269,12.783716 -0.561605,6.876809 4.879485,13.550274 11.735202,14.360362 6.824053,1.085882 13.879603,-3.856738 15.209923,-10.631907 1.51494,-6.38346 -2.389,-13.37591 -8.531779,-15.58923 -1.589694,-0.61165 -3.292996,-0.924071 -4.996077,-0.922941 z m 0.04341,8.159709 c 0.976733,-0.02823 1.963192,0.232278 2.79156,0.83044 3.559756,2.5603 2.193938,10.107387 -2.689757,10.044348 -3.644042,0.298309 -5.465376,-3.975526 -4.617807,-7.032645 0.265922,-2.322417 2.367195,-3.780045 4.516004,-3.842143 z"
       id="path67-6" />
  </g>
  <g
     inkscape:label="Layer 1"
     inkscape:groupmode="layer"
     id="layer1"
     transform="translate(0,-267.36667)">
    <path
       style="clip-rule:evenodd;display:inline;fill:#0c0e0f;fill-rule:evenodd;stroke-width:0.94155604"
       d="m 72.410911,295.94144 0.257975,-25.84673 h 8.917458 l 0.129061,18.99795 8.140557,-0.13003 0.130062,6.97881 z"
       id="path85"
       inkscape:connector-curvature="0" />
    <path
       style="clip-rule:evenodd;display:inline;fill:#0c0e0f;fill-rule:evenodd;stroke-width:0.94155604"
       d="m 162.61394,269.83777 0.25802,6.71989 h -7.62464 v 3.23049 h 6.71984 l -0.129,5.94597 h -6.33201 l -0.12998,3.35944 h 7.10785 v 6.84788 l -16.28241,-0.12801 0.12805,-26.10466 z"
       id="path83"
       inkscape:connector-curvature="0" />
    <path
       style="clip-rule:evenodd;display:inline;fill:#0c0e0f;fill-rule:evenodd;stroke-width:0.94155604"
       d="m 177.60356,289.4786 -4.52232,6.46284 H 163.388 l 9.04631,-13.82767 -8.14156,-11.76098 h 10.21024 l 2.97153,5.29906 2.97254,-5.29906 10.20929,0.12993 -7.62382,12.01899 8.52865,13.43973 -10.46721,-0.12888 z"
       id="path81"
       inkscape:connector-curvature="0" />
    <path
       style="clip-rule:evenodd;display:inline;fill:#0c0e0f;fill-rule:evenodd;stroke-width:0.94155604"
       d="m 114.15198,286.76407 3.10251,0.25703 c 0.12889,-0.25703 0.25696,-0.6459 0.25696,-1.03378 l -4.39327,-1.8097 h 4.91211 c 0,-0.3879 0.12897,-0.90483 0.12897,-1.29284 l -6.33378,-1.03374 6.33378,-1.29183 c 0,-0.3879 -0.12897,-0.64689 -0.12897,-1.03383 l -5.81693,0.258 -0.646,-0.258 0.38802,-0.64687 5.29813,-2.19662 c -0.25894,-0.51695 -0.51691,-1.16285 -0.77586,-1.67976 l -5.55704,2.84354 h -0.77402 l 0.12904,-0.77495 4.3933,-4.52321 c -0.25701,-0.38796 -0.64588,-0.64684 -0.90492,-1.03479 l -5.03907,4.65222 -0.64788,0.12894 -0.12803,-0.77291 2.45461,-6.20303 h 0.13108 c -0.51897,-0.25793 -1.03591,-0.51689 -1.55191,-0.64594 l -2.84242,7.49483 c 2.39103,0.79864 4.00425,3.03614 4.0062,5.55714 0.12904,3.35939 -2.58361,6.0739 -5.81593,6.0739 -3.35952,0 -6.074106,-2.5855 -6.074106,-5.94496 0,-3.23051 2.584796,-5.94402 5.944106,-5.94402 h 0.12901 l -0.12901,-8.14169 h -0.25793 c -7.753846,0.12901 -13.957796,6.46192 -13.827776,14.34459 0.12798,7.75282 6.46196,13.95579 14.215706,13.82776 5.16815,-0.129 9.69239,-2.97158 12.01892,-7.10784 z"
       id="path79"
       inkscape:connector-curvature="0" />
    <path
       style="clip-rule:evenodd;display:inline;fill:#0c0e0f;fill-rule:evenodd;stroke-width:0.94155598"
       d="m 120.48515,269.5779 -0.13125,26.36377 h 11.37243 c 10.98609,0 12.53567,-10.07931 12.53567,-13.56972 0,-1.42171 0.13004,-9.43459 -8.39949,-12.14809 -1.03384,-0.38798 -2.45463,-0.51696 -4.00544,-0.64596 z m 8.80205,7.92097 h 2.84376 c 1.03381,0 2.06862,0.77494 1.42161,0.64595 0.51692,0.12899 1.68104,2.84352 1.68104,4.78214 0,1.68065 -1.0352,3.48853 -1.42317,4.00544 -0.51689,0.90483 -0.6473,0.90485 -1.54926,0.90485 h -2.97398 z"
       id="path77"
       inkscape:connector-curvature="0" />
    <path
       style="clip-rule:evenodd;display:inline;fill:#0c0e0f;fill-rule:evenodd;stroke-width:0.94155604"
       d="m 52.221554,295.94144 c 0.08604,-8.61558 0.172007,-17.23118 0.258038,-25.84673 2.97245,0 5.944966,0 8.917485,0 0.04297,6.33281 0.08601,12.66541 0.128899,18.99795 2.713687,-0.0433 5.427202,-0.0866 8.140837,-0.13003 0.04343,2.32633 0.08659,4.65259 0.129845,6.97881 -5.858318,0 -11.716712,0 -17.575104,0 z"
       id="path73"
       inkscape:connector-curvature="0" />
    <path
       style="clip-rule:evenodd;display:inline;fill:#0c0e0f;fill-rule:evenodd;stroke-width:0.94155598"
       d="m 12.346017,269.67144 c -0.40683,0.005 -0.812977,0.0246 -1.21698,0.0558 -3.4902805,0.0725 -6.9803783,0.14499 -10.47067932,0.21756 -0.0429998,8.65855 -0.0861949,17.31709 -0.12919101,25.97568 2.75688613,-0.0431 5.51395283,-0.0856 8.27081303,-0.12867 0.04299,-2.67087 0.085641,-5.34209 0.1286743,-8.01295 2.35949,2.82173 4.620371,5.27202 6.619234,8.12405 2.661515,-0.0374 5.323025,-0.0746 7.984527,-0.11214 -1.981639,-3.48869 -3.963218,-6.97774 -5.944857,-10.46654 2.532179,-1.22701 4.786273,-3.50494 4.89014,-6.46886 0.610592,-2.4905 -0.274269,-5.07398 -2.137854,-6.76909 -2.273536,-1.81609 -5.146018,-2.45176 -7.993827,-2.41484 z m -2.7057786,6.20117 c 2.3097866,-0.0542 4.8207946,1.78571 3.1331426,4.18114 -0.463296,0.56945 -1.204139,0.8038 -1.912028,0.83406 -1.5933725,0.34733 -2.8242512,0.18633 -2.3709152,-1.63763 -0.02833,-1.04798 -0.056459,-2.09595 -0.08475,-3.14399 0.3859644,-0.14845 0.806812,-0.22354 1.2345506,-0.23358 z"
       id="path71"
       inkscape:connector-curvature="0" />
    <path
       style="clip-rule:evenodd;display:inline;fill:#0c0e0f;fill-rule:evenodd;stroke-width:0.94155598"
       d="m 37.101095,268.64721 c -6.889785,-0.0307 -13.140656,5.88658 -13.41727,12.78372 -0.561604,6.87681 4.879486,13.55027 11.735202,14.36036 6.824054,1.08588 13.879605,-3.85674 15.209925,-10.63191 1.514941,-6.38346 -2.389,-13.37591 -8.531781,-15.58923 -1.589693,-0.61165 -3.292996,-0.92407 -4.996076,-0.92294 z m 0.04341,8.15971 c 0.976733,-0.0282 1.963193,0.23228 2.791561,0.83044 3.559759,2.5603 2.193938,10.10739 -2.689757,10.04435 -3.644043,0.29831 -5.465376,-3.97553 -4.617807,-7.03265 0.265922,-2.32241 2.367195,-3.78004 4.516003,-3.84214 z"
       id="path67"
       inkscape:connector-curvature="0" />
  </g>
</svg>
